ISO-10303-21;
HEADER;
/* Generated by software containing ST-Developer
 * from STEP Tools, Inc. (www.steptools.com) 
 */

FILE_DESCRIPTION(
/* description */ (''),
/* implementation_level */ '2;1');

FILE_NAME(
/* name */ 'CameraBracket_Bent(Neck Module_D435 Multi Bracket).stp',
/* time_stamp */ '2026-05-26T20:16:11+09:00',
/* author */ ('KiWook.H'),
/* organization */ (''),
/* preprocessor_version */ 'ST-DEVELOPER v20',
/* originating_system */ 'Autodesk Inventor 2025',
/* authorisation */ '');

FILE_SCHEMA (('AUTOMOTIVE_DESIGN { 1 0 10303 214 3 1 1 }'));
ENDSEC;

DATA;
#10=MECHANICAL_DESIGN_GEOMETRIC_PRESENTATION_REPRESENTATION('',(#13),#897);
#11=SHAPE_REPRESENTATION_RELATIONSHIP('SRR','None',#904,#12);
#12=ADVANCED_BREP_SHAPE_REPRESENTATION('',(#14),#896);
#13=STYLED_ITEM('',(#913),#14);
#14=MANIFOLD_SOLID_BREP('\X2\C194B9ACB4DC\X0\1',#516);
#15=FACE_BOUND('',#74,.T.);
#16=FACE_BOUND('',#75,.T.);
#17=FACE_BOUND('',#76,.T.);
#18=FACE_BOUND('',#77,.T.);
#19=FACE_BOUND('',#78,.T.);
#20=FACE_BOUND('',#79,.T.);
#21=FACE_BOUND('',#80,.T.);
#22=FACE_BOUND('',#85,.T.);
#23=FACE_BOUND('',#86,.T.);
#24=FACE_BOUND('',#87,.T.);
#25=FACE_BOUND('',#88,.T.);
#26=FACE_BOUND('',#91,.T.);
#27=FACE_BOUND('',#92,.T.);
#28=FACE_BOUND('',#93,.T.);
#29=FACE_BOUND('',#94,.T.);
#30=FACE_BOUND('',#110,.T.);
#31=FACE_BOUND('',#111,.T.);
#32=FACE_BOUND('',#112,.T.);
#33=FACE_BOUND('',#113,.T.);
#34=FACE_BOUND('',#114,.T.);
#35=FACE_BOUND('',#115,.T.);
#36=FACE_BOUND('',#116,.T.);
#37=PLANE('',#545);
#38=PLANE('',#548);
#39=PLANE('',#558);
#40=PLANE('',#564);
#41=PLANE('',#572);
#42=PLANE('',#595);
#43=PLANE('',#596);
#44=PLANE('',#597);
#45=FACE_OUTER_BOUND('',#70,.T.);
#46=FACE_OUTER_BOUND('',#71,.T.);
#47=FACE_OUTER_BOUND('',#72,.T.);
#48=FACE_OUTER_BOUND('',#73,.T.);
#49=FACE_OUTER_BOUND('',#81,.T.);
#50=FACE_OUTER_BOUND('',#82,.T.);
#51=FACE_OUTER_BOUND('',#83,.T.);
#52=FACE_OUTER_BOUND('',#84,.T.);
#53=FACE_OUTER_BOUND('',#89,.T.);
#54=FACE_OUTER_BOUND('',#90,.T.);
#55=FACE_OUTER_BOUND('',#95,.T.);
#56=FACE_OUTER_BOUND('',#96,.T.);
#57=FACE_OUTER_BOUND('',#97,.T.);
#58=FACE_OUTER_BOUND('',#98,.T.);
#59=FACE_OUTER_BOUND('',#99,.T.);
#60=FACE_OUTER_BOUND('',#100,.T.);
#61=FACE_OUTER_BOUND('',#101,.T.);
#62=FACE_OUTER_BOUND('',#102,.T.);
#63=FACE_OUTER_BOUND('',#103,.T.);
#64=FACE_OUTER_BOUND('',#104,.T.);
#65=FACE_OUTER_BOUND('',#105,.T.);
#66=FACE_OUTER_BOUND('',#106,.T.);
#67=FACE_OUTER_BOUND('',#107,.T.);
#68=FACE_OUTER_BOUND('',#108,.T.);
#69=FACE_OUTER_BOUND('',#109,.T.);
#70=EDGE_LOOP('',(#336,#337,#338,#339));
#71=EDGE_LOOP('',(#340,#341,#342,#343));
#72=EDGE_LOOP('',(#344,#345,#346,#347,#348,#349,#350,#351));
#73=EDGE_LOOP('',(#352,#353,#354,#355,#356,#357));
#74=EDGE_LOOP('',(#358));
#75=EDGE_LOOP('',(#359));
#76=EDGE_LOOP('',(#360));
#77=EDGE_LOOP('',(#361));
#78=EDGE_LOOP('',(#362));
#79=EDGE_LOOP('',(#363));
#80=EDGE_LOOP('',(#364));
#81=EDGE_LOOP('',(#365,#366,#367,#368));
#82=EDGE_LOOP('',(#369,#370,#371,#372,#373,#374,#375,#376));
#83=EDGE_LOOP('',(#377,#378,#379,#380));
#84=EDGE_LOOP('',(#381,#382,#383,#384,#385,#386));
#85=EDGE_LOOP('',(#387));
#86=EDGE_LOOP('',(#388));
#87=EDGE_LOOP('',(#389));
#88=EDGE_LOOP('',(#390));
#89=EDGE_LOOP('',(#391,#392,#393,#394));
#90=EDGE_LOOP('',(#395,#396,#397,#398,#399,#400));
#91=EDGE_LOOP('',(#401));
#92=EDGE_LOOP('',(#402));
#93=EDGE_LOOP('',(#403));
#94=EDGE_LOOP('',(#404));
#95=EDGE_LOOP('',(#405,#406,#407,#408));
#96=EDGE_LOOP('',(#409,#410,#411,#412));
#97=EDGE_LOOP('',(#413,#414,#415,#416));
#98=EDGE_LOOP('',(#417,#418,#419,#420));
#99=EDGE_LOOP('',(#421,#422,#423,#424));
#100=EDGE_LOOP('',(#425,#426,#427,#428));
#101=EDGE_LOOP('',(#429,#430,#431,#432));
#102=EDGE_LOOP('',(#433,#434,#435,#436));
#103=EDGE_LOOP('',(#437,#438,#439,#440));
#104=EDGE_LOOP('',(#441,#442,#443,#444));
#105=EDGE_LOOP('',(#445,#446,#447,#448));
#106=EDGE_LOOP('',(#449,#450,#451,#452));
#107=EDGE_LOOP('',(#453,#454,#455,#456));
#108=EDGE_LOOP('',(#457,#458,#459,#460));
#109=EDGE_LOOP('',(#461,#462,#463,#464,#465,#466));
#110=EDGE_LOOP('',(#467));
#111=EDGE_LOOP('',(#468));
#112=EDGE_LOOP('',(#469));
#113=EDGE_LOOP('',(#470));
#114=EDGE_LOOP('',(#471));
#115=EDGE_LOOP('',(#472));
#116=EDGE_LOOP('',(#473));
#117=LINE('',#758,#152);
#118=LINE('',#765,#153);
#119=LINE('',#768,#154);
#120=LINE('',#771,#155);
#121=LINE('',#775,#156);
#122=LINE('',#777,#157);
#123=LINE('',#779,#158);
#124=LINE('',#782,#159);
#125=LINE('',#785,#160);
#126=LINE('',#789,#161);
#127=LINE('',#790,#162);
#128=LINE('',#807,#163);
#129=LINE('',#808,#164);
#130=LINE('',#811,#165);
#131=LINE('',#815,#166);
#132=LINE('',#817,#167);
#133=LINE('',#819,#168);
#134=LINE('',#826,#169);
#135=LINE('',#829,#170);
#136=LINE('',#831,#171);
#137=LINE('',#843,#172);
#138=LINE('',#845,#173);
#139=LINE('',#846,#174);
#140=LINE('',#856,#175);
#141=LINE('',#858,#176);
#142=LINE('',#860,#177);
#143=LINE('',#862,#178);
#144=LINE('',#865,#179);
#145=LINE('',#869,#180);
#146=LINE('',#873,#181);
#147=LINE('',#877,#182);
#148=LINE('',#881,#183);
#149=LINE('',#885,#184);
#150=LINE('',#888,#185);
#151=LINE('',#891,#186);
#152=VECTOR('',#604,3.2);
#153=VECTOR('',#611,10.);
#154=VECTOR('',#614,10.);
#155=VECTOR('',#617,10.);
#156=VECTOR('',#620,10.);
#157=VECTOR('',#621,10.);
#158=VECTOR('',#622,10.);
#159=VECTOR('',#625,10.);
#160=VECTOR('',#628,10.);
#161=VECTOR('',#631,10.);
#162=VECTOR('',#632,10.);
#163=VECTOR('',#649,10.);
#164=VECTOR('',#650,10.);
#165=VECTOR('',#653,10.);
#166=VECTOR('',#656,10.);
#167=VECTOR('',#657,10.);
#168=VECTOR('',#658,10.);
#169=VECTOR('',#667,10.);
#170=VECTOR('',#670,10.);
#171=VECTOR('',#673,10.);
#172=VECTOR('',#686,10.);
#173=VECTOR('',#689,10.);
#174=VECTOR('',#690,10.);
#175=VECTOR('',#701,1.5);
#176=VECTOR('',#704,1.5);
#177=VECTOR('',#707,1.5);
#178=VECTOR('',#710,1.5);
#179=VECTOR('',#713,1.5);
#180=VECTOR('',#718,1.5);
#181=VECTOR('',#723,1.5);
#182=VECTOR('',#728,1.5);
#183=VECTOR('',#733,1.5);
#184=VECTOR('',#738,1.5);
#185=VECTOR('',#743,10.);
#186=VECTOR('',#748,10.);
#187=CIRCLE('',#540,3.2);
#188=CIRCLE('',#541,3.2);
#189=CIRCLE('',#543,2.);
#190=CIRCLE('',#544,2.);
#191=CIRCLE('',#546,2.);
#192=CIRCLE('',#547,5.);
#193=CIRCLE('',#549,2.);
#194=CIRCLE('',#550,1.5);
#195=CIRCLE('',#551,1.5);
#196=CIRCLE('',#552,1.5);
#197=CIRCLE('',#553,1.5);
#198=CIRCLE('',#554,1.5);
#199=CIRCLE('',#555,1.5);
#200=CIRCLE('',#557,2.);
#201=CIRCLE('',#559,5.);
#202=CIRCLE('',#560,2.);
#203=CIRCLE('',#562,2.);
#204=CIRCLE('',#563,2.);
#205=CIRCLE('',#565,2.);
#206=CIRCLE('',#566,1.5);
#207=CIRCLE('',#567,1.5);
#208=CIRCLE('',#568,1.5);
#209=CIRCLE('',#569,1.5);
#210=CIRCLE('',#571,2.);
#211=CIRCLE('',#573,1.5);
#212=CIRCLE('',#574,1.5);
#213=CIRCLE('',#575,1.5);
#214=CIRCLE('',#576,1.5);
#215=CIRCLE('',#582,1.5);
#216=CIRCLE('',#584,1.5);
#217=CIRCLE('',#586,1.5);
#218=CIRCLE('',#588,1.5);
#219=CIRCLE('',#590,1.5);
#220=CIRCLE('',#592,1.5);
#221=VERTEX_POINT('',#755);
#222=VERTEX_POINT('',#757);
#223=VERTEX_POINT('',#761);
#224=VERTEX_POINT('',#762);
#225=VERTEX_POINT('',#764);
#226=VERTEX_POINT('',#766);
#227=VERTEX_POINT('',#770);
#228=VERTEX_POINT('',#772);
#229=VERTEX_POINT('',#774);
#230=VERTEX_POINT('',#776);
#231=VERTEX_POINT('',#778);
#232=VERTEX_POINT('',#780);
#233=VERTEX_POINT('',#784);
#234=VERTEX_POINT('',#786);
#235=VERTEX_POINT('',#788);
#236=VERTEX_POINT('',#791);
#237=VERTEX_POINT('',#793);
#238=VERTEX_POINT('',#795);
#239=VERTEX_POINT('',#797);
#240=VERTEX_POINT('',#799);
#241=VERTEX_POINT('',#801);
#242=VERTEX_POINT('',#804);
#243=VERTEX_POINT('',#805);
#244=VERTEX_POINT('',#810);
#245=VERTEX_POINT('',#812);
#246=VERTEX_POINT('',#814);
#247=VERTEX_POINT('',#816);
#248=VERTEX_POINT('',#818);
#249=VERTEX_POINT('',#822);
#250=VERTEX_POINT('',#824);
#251=VERTEX_POINT('',#828);
#252=VERTEX_POINT('',#832);
#253=VERTEX_POINT('',#834);
#254=VERTEX_POINT('',#836);
#255=VERTEX_POINT('',#838);
#256=VERTEX_POINT('',#841);
#257=VERTEX_POINT('',#847);
#258=VERTEX_POINT('',#849);
#259=VERTEX_POINT('',#851);
#260=VERTEX_POINT('',#853);
#261=VERTEX_POINT('',#864);
#262=VERTEX_POINT('',#868);
#263=VERTEX_POINT('',#872);
#264=VERTEX_POINT('',#876);
#265=VERTEX_POINT('',#880);
#266=VERTEX_POINT('',#884);
#267=EDGE_CURVE('',#221,#221,#187,.T.);
#268=EDGE_CURVE('',#221,#222,#117,.T.);
#269=EDGE_CURVE('',#222,#222,#188,.T.);
#270=EDGE_CURVE('',#223,#224,#189,.T.);
#271=EDGE_CURVE('',#224,#225,#118,.T.);
#272=EDGE_CURVE('',#225,#226,#190,.T.);
#273=EDGE_CURVE('',#226,#223,#119,.T.);
#274=EDGE_CURVE('',#224,#227,#120,.T.);
#275=EDGE_CURVE('',#228,#227,#191,.T.);
#276=EDGE_CURVE('',#228,#229,#121,.T.);
#277=EDGE_CURVE('',#230,#229,#122,.T.);
#278=EDGE_CURVE('',#230,#231,#123,.T.);
#279=EDGE_CURVE('',#232,#231,#192,.T.);
#280=EDGE_CURVE('',#232,#225,#124,.T.);
#281=EDGE_CURVE('',#223,#233,#125,.T.);
#282=EDGE_CURVE('',#234,#233,#193,.T.);
#283=EDGE_CURVE('',#235,#234,#126,.T.);
#284=EDGE_CURVE('',#227,#235,#127,.T.);
#285=EDGE_CURVE('',#236,#236,#194,.T.);
#286=EDGE_CURVE('',#237,#237,#195,.T.);
#287=EDGE_CURVE('',#238,#238,#196,.T.);
#288=EDGE_CURVE('',#239,#239,#197,.T.);
#289=EDGE_CURVE('',#240,#240,#198,.T.);
#290=EDGE_CURVE('',#241,#241,#199,.T.);
#291=EDGE_CURVE('',#242,#243,#200,.T.);
#292=EDGE_CURVE('',#243,#234,#128,.T.);
#293=EDGE_CURVE('',#233,#242,#129,.T.);
#294=EDGE_CURVE('',#243,#244,#130,.T.);
#295=EDGE_CURVE('',#245,#244,#201,.T.);
#296=EDGE_CURVE('',#245,#246,#131,.T.);
#297=EDGE_CURVE('',#247,#246,#132,.T.);
#298=EDGE_CURVE('',#247,#248,#133,.T.);
#299=EDGE_CURVE('',#235,#248,#202,.T.);
#300=EDGE_CURVE('',#249,#247,#203,.T.);
#301=EDGE_CURVE('',#246,#250,#204,.T.);
#302=EDGE_CURVE('',#250,#249,#134,.T.);
#303=EDGE_CURVE('',#251,#249,#135,.T.);
#304=EDGE_CURVE('',#229,#251,#205,.T.);
#305=EDGE_CURVE('',#248,#228,#136,.T.);
#306=EDGE_CURVE('',#252,#252,#206,.T.);
#307=EDGE_CURVE('',#253,#253,#207,.T.);
#308=EDGE_CURVE('',#254,#254,#208,.T.);
#309=EDGE_CURVE('',#255,#255,#209,.T.);
#310=EDGE_CURVE('',#256,#230,#210,.T.);
#311=EDGE_CURVE('',#251,#256,#137,.T.);
#312=EDGE_CURVE('',#231,#245,#138,.T.);
#313=EDGE_CURVE('',#256,#250,#139,.T.);
#314=EDGE_CURVE('',#257,#257,#211,.T.);
#315=EDGE_CURVE('',#258,#258,#212,.T.);
#316=EDGE_CURVE('',#259,#259,#213,.T.);
#317=EDGE_CURVE('',#260,#260,#214,.T.);
#318=EDGE_CURVE('',#260,#255,#140,.T.);
#319=EDGE_CURVE('',#259,#254,#141,.T.);
#320=EDGE_CURVE('',#258,#253,#142,.T.);
#321=EDGE_CURVE('',#257,#252,#143,.T.);
#322=EDGE_CURVE('',#236,#261,#144,.T.);
#323=EDGE_CURVE('',#261,#261,#215,.T.);
#324=EDGE_CURVE('',#237,#262,#145,.T.);
#325=EDGE_CURVE('',#262,#262,#216,.T.);
#326=EDGE_CURVE('',#238,#263,#146,.T.);
#327=EDGE_CURVE('',#263,#263,#217,.T.);
#328=EDGE_CURVE('',#239,#264,#147,.T.);
#329=EDGE_CURVE('',#264,#264,#218,.T.);
#330=EDGE_CURVE('',#240,#265,#148,.T.);
#331=EDGE_CURVE('',#265,#265,#219,.T.);
#332=EDGE_CURVE('',#241,#266,#149,.T.);
#333=EDGE_CURVE('',#266,#266,#220,.T.);
#334=EDGE_CURVE('',#244,#232,#150,.T.);
#335=EDGE_CURVE('',#242,#226,#151,.T.);
#336=ORIENTED_EDGE('',*,*,#267,.F.);
#337=ORIENTED_EDGE('',*,*,#268,.T.);
#338=ORIENTED_EDGE('',*,*,#269,.F.);
#339=ORIENTED_EDGE('',*,*,#268,.F.);
#340=ORIENTED_EDGE('',*,*,#270,.T.);
#341=ORIENTED_EDGE('',*,*,#271,.T.);
#342=ORIENTED_EDGE('',*,*,#272,.T.);
#343=ORIENTED_EDGE('',*,*,#273,.T.);
#344=ORIENTED_EDGE('',*,*,#271,.F.);
#345=ORIENTED_EDGE('',*,*,#274,.T.);
#346=ORIENTED_EDGE('',*,*,#275,.F.);
#347=ORIENTED_EDGE('',*,*,#276,.T.);
#348=ORIENTED_EDGE('',*,*,#277,.F.);
#349=ORIENTED_EDGE('',*,*,#278,.T.);
#350=ORIENTED_EDGE('',*,*,#279,.F.);
#351=ORIENTED_EDGE('',*,*,#280,.T.);
#352=ORIENTED_EDGE('',*,*,#270,.F.);
#353=ORIENTED_EDGE('',*,*,#281,.T.);
#354=ORIENTED_EDGE('',*,*,#282,.F.);
#355=ORIENTED_EDGE('',*,*,#283,.F.);
#356=ORIENTED_EDGE('',*,*,#284,.F.);
#357=ORIENTED_EDGE('',*,*,#274,.F.);
#358=ORIENTED_EDGE('',*,*,#267,.T.);
#359=ORIENTED_EDGE('',*,*,#285,.T.);
#360=ORIENTED_EDGE('',*,*,#286,.T.);
#361=ORIENTED_EDGE('',*,*,#287,.T.);
#362=ORIENTED_EDGE('',*,*,#288,.T.);
#363=ORIENTED_EDGE('',*,*,#289,.T.);
#364=ORIENTED_EDGE('',*,*,#290,.T.);
#365=ORIENTED_EDGE('',*,*,#291,.T.);
#366=ORIENTED_EDGE('',*,*,#292,.T.);
#367=ORIENTED_EDGE('',*,*,#282,.T.);
#368=ORIENTED_EDGE('',*,*,#293,.T.);
#369=ORIENTED_EDGE('',*,*,#292,.F.);
#370=ORIENTED_EDGE('',*,*,#294,.T.);
#371=ORIENTED_EDGE('',*,*,#295,.F.);
#372=ORIENTED_EDGE('',*,*,#296,.T.);
#373=ORIENTED_EDGE('',*,*,#297,.F.);
#374=ORIENTED_EDGE('',*,*,#298,.T.);
#375=ORIENTED_EDGE('',*,*,#299,.F.);
#376=ORIENTED_EDGE('',*,*,#283,.T.);
#377=ORIENTED_EDGE('',*,*,#300,.T.);
#378=ORIENTED_EDGE('',*,*,#297,.T.);
#379=ORIENTED_EDGE('',*,*,#301,.T.);
#380=ORIENTED_EDGE('',*,*,#302,.T.);
#381=ORIENTED_EDGE('',*,*,#300,.F.);
#382=ORIENTED_EDGE('',*,*,#303,.F.);
#383=ORIENTED_EDGE('',*,*,#304,.F.);
#384=ORIENTED_EDGE('',*,*,#276,.F.);
#385=ORIENTED_EDGE('',*,*,#305,.F.);
#386=ORIENTED_EDGE('',*,*,#298,.F.);
#387=ORIENTED_EDGE('',*,*,#306,.T.);
#388=ORIENTED_EDGE('',*,*,#307,.T.);
#389=ORIENTED_EDGE('',*,*,#308,.T.);
#390=ORIENTED_EDGE('',*,*,#309,.T.);
#391=ORIENTED_EDGE('',*,*,#310,.T.);
#392=ORIENTED_EDGE('',*,*,#277,.T.);
#393=ORIENTED_EDGE('',*,*,#304,.T.);
#394=ORIENTED_EDGE('',*,*,#311,.T.);
#395=ORIENTED_EDGE('',*,*,#301,.F.);
#396=ORIENTED_EDGE('',*,*,#296,.F.);
#397=ORIENTED_EDGE('',*,*,#312,.F.);
#398=ORIENTED_EDGE('',*,*,#278,.F.);
#399=ORIENTED_EDGE('',*,*,#310,.F.);
#400=ORIENTED_EDGE('',*,*,#313,.T.);
#401=ORIENTED_EDGE('',*,*,#314,.T.);
#402=ORIENTED_EDGE('',*,*,#315,.T.);
#403=ORIENTED_EDGE('',*,*,#316,.T.);
#404=ORIENTED_EDGE('',*,*,#317,.T.);
#405=ORIENTED_EDGE('',*,*,#317,.F.);
#406=ORIENTED_EDGE('',*,*,#318,.T.);
#407=ORIENTED_EDGE('',*,*,#309,.F.);
#408=ORIENTED_EDGE('',*,*,#318,.F.);
#409=ORIENTED_EDGE('',*,*,#316,.F.);
#410=ORIENTED_EDGE('',*,*,#319,.T.);
#411=ORIENTED_EDGE('',*,*,#308,.F.);
#412=ORIENTED_EDGE('',*,*,#319,.F.);
#413=ORIENTED_EDGE('',*,*,#315,.F.);
#414=ORIENTED_EDGE('',*,*,#320,.T.);
#415=ORIENTED_EDGE('',*,*,#307,.F.);
#416=ORIENTED_EDGE('',*,*,#320,.F.);
#417=ORIENTED_EDGE('',*,*,#314,.F.);
#418=ORIENTED_EDGE('',*,*,#321,.T.);
#419=ORIENTED_EDGE('',*,*,#306,.F.);
#420=ORIENTED_EDGE('',*,*,#321,.F.);
#421=ORIENTED_EDGE('',*,*,#285,.F.);
#422=ORIENTED_EDGE('',*,*,#322,.T.);
#423=ORIENTED_EDGE('',*,*,#323,.F.);
#424=ORIENTED_EDGE('',*,*,#322,.F.);
#425=ORIENTED_EDGE('',*,*,#286,.F.);
#426=ORIENTED_EDGE('',*,*,#324,.T.);
#427=ORIENTED_EDGE('',*,*,#325,.F.);
#428=ORIENTED_EDGE('',*,*,#324,.F.);
#429=ORIENTED_EDGE('',*,*,#287,.F.);
#430=ORIENTED_EDGE('',*,*,#326,.T.);
#431=ORIENTED_EDGE('',*,*,#327,.F.);
#432=ORIENTED_EDGE('',*,*,#326,.F.);
#433=ORIENTED_EDGE('',*,*,#288,.F.);
#434=ORIENTED_EDGE('',*,*,#328,.T.);
#435=ORIENTED_EDGE('',*,*,#329,.F.);
#436=ORIENTED_EDGE('',*,*,#328,.F.);
#437=ORIENTED_EDGE('',*,*,#289,.F.);
#438=ORIENTED_EDGE('',*,*,#330,.T.);
#439=ORIENTED_EDGE('',*,*,#331,.F.);
#440=ORIENTED_EDGE('',*,*,#330,.F.);
#441=ORIENTED_EDGE('',*,*,#290,.F.);
#442=ORIENTED_EDGE('',*,*,#332,.T.);
#443=ORIENTED_EDGE('',*,*,#333,.F.);
#444=ORIENTED_EDGE('',*,*,#332,.F.);
#445=ORIENTED_EDGE('',*,*,#295,.T.);
#446=ORIENTED_EDGE('',*,*,#334,.T.);
#447=ORIENTED_EDGE('',*,*,#279,.T.);
#448=ORIENTED_EDGE('',*,*,#312,.T.);
#449=ORIENTED_EDGE('',*,*,#275,.T.);
#450=ORIENTED_EDGE('',*,*,#284,.T.);
#451=ORIENTED_EDGE('',*,*,#299,.T.);
#452=ORIENTED_EDGE('',*,*,#305,.T.);
#453=ORIENTED_EDGE('',*,*,#273,.F.);
#454=ORIENTED_EDGE('',*,*,#335,.F.);
#455=ORIENTED_EDGE('',*,*,#293,.F.);
#456=ORIENTED_EDGE('',*,*,#281,.F.);
#457=ORIENTED_EDGE('',*,*,#302,.F.);
#458=ORIENTED_EDGE('',*,*,#313,.F.);
#459=ORIENTED_EDGE('',*,*,#311,.F.);
#460=ORIENTED_EDGE('',*,*,#303,.T.);
#461=ORIENTED_EDGE('',*,*,#272,.F.);
#462=ORIENTED_EDGE('',*,*,#280,.F.);
#463=ORIENTED_EDGE('',*,*,#334,.F.);
#464=ORIENTED_EDGE('',*,*,#294,.F.);
#465=ORIENTED_EDGE('',*,*,#291,.F.);
#466=ORIENTED_EDGE('',*,*,#335,.T.);
#467=ORIENTED_EDGE('',*,*,#269,.T.);
#468=ORIENTED_EDGE('',*,*,#323,.T.);
#469=ORIENTED_EDGE('',*,*,#325,.T.);
#470=ORIENTED_EDGE('',*,*,#327,.T.);
#471=ORIENTED_EDGE('',*,*,#329,.T.);
#472=ORIENTED_EDGE('',*,*,#331,.T.);
#473=ORIENTED_EDGE('',*,*,#333,.T.);
#474=CYLINDRICAL_SURFACE('',#539,3.2);
#475=CYLINDRICAL_SURFACE('',#542,2.);
#476=CYLINDRICAL_SURFACE('',#556,2.);
#477=CYLINDRICAL_SURFACE('',#561,2.);
#478=CYLINDRICAL_SURFACE('',#570,2.);
#479=CYLINDRICAL_SURFACE('',#577,1.5);
#480=CYLINDRICAL_SURFACE('',#578,1.5);
#481=CYLINDRICAL_SURFACE('',#579,1.5);
#482=CYLINDRICAL_SURFACE('',#580,1.5);
#483=CYLINDRICAL_SURFACE('',#581,1.5);
#484=CYLINDRICAL_SURFACE('',#583,1.5);
#485=CYLINDRICAL_SURFACE('',#585,1.5);
#486=CYLINDRICAL_SURFACE('',#587,1.5);
#487=CYLINDRICAL_SURFACE('',#589,1.5);
#488=CYLINDRICAL_SURFACE('',#591,1.5);
#489=CYLINDRICAL_SURFACE('',#593,5.);
#490=CYLINDRICAL_SURFACE('',#594,2.);
#491=ADVANCED_FACE('',(#45),#474,.F.);
#492=ADVANCED_FACE('',(#46),#475,.T.);
#493=ADVANCED_FACE('',(#47),#37,.T.);
#494=ADVANCED_FACE('',(#48,#15,#16,#17,#18,#19,#20,#21),#38,.T.);
#495=ADVANCED_FACE('',(#49),#476,.T.);
#496=ADVANCED_FACE('',(#50),#39,.T.);
#497=ADVANCED_FACE('',(#51),#477,.T.);
#498=ADVANCED_FACE('',(#52,#22,#23,#24,#25),#40,.T.);
#499=ADVANCED_FACE('',(#53),#478,.T.);
#500=ADVANCED_FACE('',(#54,#26,#27,#28,#29),#41,.T.);
#501=ADVANCED_FACE('',(#55),#479,.F.);
#502=ADVANCED_FACE('',(#56),#480,.F.);
#503=ADVANCED_FACE('',(#57),#481,.F.);
#504=ADVANCED_FACE('',(#58),#482,.F.);
#505=ADVANCED_FACE('',(#59),#483,.F.);
#506=ADVANCED_FACE('',(#60),#484,.F.);
#507=ADVANCED_FACE('',(#61),#485,.F.);
#508=ADVANCED_FACE('',(#62),#486,.F.);
#509=ADVANCED_FACE('',(#63),#487,.F.);
#510=ADVANCED_FACE('',(#64),#488,.F.);
#511=ADVANCED_FACE('',(#65),#489,.T.);
#512=ADVANCED_FACE('',(#66),#490,.F.);
#513=ADVANCED_FACE('',(#67),#42,.T.);
#514=ADVANCED_FACE('',(#68),#43,.T.);
#515=ADVANCED_FACE('',(#69,#30,#31,#32,#33,#34,#35,#36),#44,.T.);
#516=CLOSED_SHELL('',(#491,#492,#493,#494,#495,#496,#497,#498,#499,#500,
#501,#502,#503,#504,#505,#506,#507,#508,#509,#510,#511,#512,#513,#514,#515));
#517=DERIVED_UNIT_ELEMENT(#520,1.);
#518=DERIVED_UNIT_ELEMENT(#899,-3.);
#519=DIMENSIONAL_EXPONENTS(0.,1.,0.,0.,0.,0.,0.);
#520=(
CONVERSION_BASED_UNIT('gram',#522)
MASS_UNIT()
NAMED_UNIT(#519)
);
#521=(
MASS_UNIT()
NAMED_UNIT(*)
SI_UNIT(.KILO.,.GRAM.)
);
#522=MASS_MEASURE_WITH_UNIT(MASS_MEASURE(0.001),#521);
#523=DERIVED_UNIT((#517,#518));
#524=MEASURE_REPRESENTATION_ITEM('density measure',
POSITIVE_RATIO_MEASURE(1.),#523);
#525=PROPERTY_DEFINITION_REPRESENTATION(#530,#527);
#526=PROPERTY_DEFINITION_REPRESENTATION(#531,#528);
#527=REPRESENTATION('material name',(#529),#896);
#528=REPRESENTATION('density',(#524),#896);
#529=DESCRIPTIVE_REPRESENTATION_ITEM('\X2\C77CBC18\X0\','\X2\C77CBC18\X0\');
#530=PROPERTY_DEFINITION('material property','material name',#906);
#531=PROPERTY_DEFINITION('material property','density of part',#906);
#532=DATE_TIME_ROLE('creation_date');
#533=APPLIED_DATE_AND_TIME_ASSIGNMENT(#534,#532,(#906));
#534=DATE_AND_TIME(#535,#536);
#535=CALENDAR_DATE(2026,4,3);
#536=LOCAL_TIME(0,0,0.,#537);
#537=COORDINATED_UNIVERSAL_TIME_OFFSET(0,0,.BEHIND.);
#538=AXIS2_PLACEMENT_3D('',#753,#598,#599);
#539=AXIS2_PLACEMENT_3D('',#754,#600,#601);
#540=AXIS2_PLACEMENT_3D('',#756,#602,#603);
#541=AXIS2_PLACEMENT_3D('',#759,#605,#606);
#542=AXIS2_PLACEMENT_3D('',#760,#607,#608);
#543=AXIS2_PLACEMENT_3D('',#763,#609,#610);
#544=AXIS2_PLACEMENT_3D('',#767,#612,#613);
#545=AXIS2_PLACEMENT_3D('',#769,#615,#616);
#546=AXIS2_PLACEMENT_3D('',#773,#618,#619);
#547=AXIS2_PLACEMENT_3D('',#781,#623,#624);
#548=AXIS2_PLACEMENT_3D('',#783,#626,#627);
#549=AXIS2_PLACEMENT_3D('',#787,#629,#630);
#550=AXIS2_PLACEMENT_3D('',#792,#633,#634);
#551=AXIS2_PLACEMENT_3D('',#794,#635,#636);
#552=AXIS2_PLACEMENT_3D('',#796,#637,#638);
#553=AXIS2_PLACEMENT_3D('',#798,#639,#640);
#554=AXIS2_PLACEMENT_3D('',#800,#641,#642);
#555=AXIS2_PLACEMENT_3D('',#802,#643,#644);
#556=AXIS2_PLACEMENT_3D('',#803,#645,#646);
#557=AXIS2_PLACEMENT_3D('',#806,#647,#648);
#558=AXIS2_PLACEMENT_3D('',#809,#651,#652);
#559=AXIS2_PLACEMENT_3D('',#813,#654,#655);
#560=AXIS2_PLACEMENT_3D('',#820,#659,#660);
#561=AXIS2_PLACEMENT_3D('',#821,#661,#662);
#562=AXIS2_PLACEMENT_3D('',#823,#663,#664);
#563=AXIS2_PLACEMENT_3D('',#825,#665,#666);
#564=AXIS2_PLACEMENT_3D('',#827,#668,#669);
#565=AXIS2_PLACEMENT_3D('',#830,#671,#672);
#566=AXIS2_PLACEMENT_3D('',#833,#674,#675);
#567=AXIS2_PLACEMENT_3D('',#835,#676,#677);
#568=AXIS2_PLACEMENT_3D('',#837,#678,#679);
#569=AXIS2_PLACEMENT_3D('',#839,#680,#681);
#570=AXIS2_PLACEMENT_3D('',#840,#682,#683);
#571=AXIS2_PLACEMENT_3D('',#842,#684,#685);
#572=AXIS2_PLACEMENT_3D('',#844,#687,#688);
#573=AXIS2_PLACEMENT_3D('',#848,#691,#692);
#574=AXIS2_PLACEMENT_3D('',#850,#693,#694);
#575=AXIS2_PLACEMENT_3D('',#852,#695,#696);
#576=AXIS2_PLACEMENT_3D('',#854,#697,#698);
#577=AXIS2_PLACEMENT_3D('',#855,#699,#700);
#578=AXIS2_PLACEMENT_3D('',#857,#702,#703);
#579=AXIS2_PLACEMENT_3D('',#859,#705,#706);
#580=AXIS2_PLACEMENT_3D('',#861,#708,#709);
#581=AXIS2_PLACEMENT_3D('',#863,#711,#712);
#582=AXIS2_PLACEMENT_3D('',#866,#714,#715);
#583=AXIS2_PLACEMENT_3D('',#867,#716,#717);
#584=AXIS2_PLACEMENT_3D('',#870,#719,#720);
#585=AXIS2_PLACEMENT_3D('',#871,#721,#722);
#586=AXIS2_PLACEMENT_3D('',#874,#724,#725);
#587=AXIS2_PLACEMENT_3D('',#875,#726,#727);
#588=AXIS2_PLACEMENT_3D('',#878,#729,#730);
#589=AXIS2_PLACEMENT_3D('',#879,#731,#732);
#590=AXIS2_PLACEMENT_3D('',#882,#734,#735);
#591=AXIS2_PLACEMENT_3D('',#883,#736,#737);
#592=AXIS2_PLACEMENT_3D('',#886,#739,#740);
#593=AXIS2_PLACEMENT_3D('',#887,#741,#742);
#594=AXIS2_PLACEMENT_3D('',#889,#744,#745);
#595=AXIS2_PLACEMENT_3D('',#890,#746,#747);
#596=AXIS2_PLACEMENT_3D('',#892,#749,#750);
#597=AXIS2_PLACEMENT_3D('',#893,#751,#752);
#598=DIRECTION('axis',(0.,0.,1.));
#599=DIRECTION('refdir',(1.,0.,0.));
#600=DIRECTION('center_axis',(0.,-1.,0.));
#601=DIRECTION('ref_axis',(1.,0.,0.));
#602=DIRECTION('center_axis',(0.,-1.,0.));
#603=DIRECTION('ref_axis',(1.,0.,0.));
#604=DIRECTION('',(0.,-1.,0.));
#605=DIRECTION('center_axis',(1.25321623502168E-16,1.,0.));
#606=DIRECTION('ref_axis',(1.,0.,0.));
#607=DIRECTION('center_axis',(0.,1.,0.));
#608=DIRECTION('ref_axis',(-0.707106781186547,0.,-0.707106781186548));
#609=DIRECTION('center_axis',(0.,-1.,0.));
#610=DIRECTION('ref_axis',(-0.707106781186547,0.,-0.707106781186548));
#611=DIRECTION('',(0.,-1.,0.));
#612=DIRECTION('center_axis',(1.25321623502168E-16,1.,0.));
#613=DIRECTION('ref_axis',(-0.707106781186547,0.,-0.707106781186548));
#614=DIRECTION('',(0.,1.,0.));
#615=DIRECTION('center_axis',(0.,0.,-1.));
#616=DIRECTION('ref_axis',(-1.,0.,0.));
#617=DIRECTION('',(1.,0.,0.));
#618=DIRECTION('center_axis',(0.,0.,-1.));
#619=DIRECTION('ref_axis',(0.707106781186547,-0.707106781186548,0.));
#620=DIRECTION('',(-3.41607084500048E-16,1.,0.));
#621=DIRECTION('',(-1.,0.,0.));
#622=DIRECTION('',(0.,-1.,0.));
#623=DIRECTION('center_axis',(0.,0.,1.));
#624=DIRECTION('ref_axis',(0.707106781186547,-0.707106781186547,0.));
#625=DIRECTION('',(-1.,1.25321623502168E-16,0.));
#626=DIRECTION('center_axis',(0.,1.,0.));
#627=DIRECTION('ref_axis',(-1.,0.,0.));
#628=DIRECTION('',(0.,0.,1.));
#629=DIRECTION('center_axis',(0.,-1.,0.));
#630=DIRECTION('ref_axis',(-0.707106781186547,0.,0.707106781186548));
#631=DIRECTION('',(-1.,0.,0.));
#632=DIRECTION('',(0.,0.,1.));
#633=DIRECTION('center_axis',(0.,-1.,0.));
#634=DIRECTION('ref_axis',(1.,0.,0.));
#635=DIRECTION('center_axis',(0.,-1.,0.));
#636=DIRECTION('ref_axis',(1.,0.,0.));
#637=DIRECTION('center_axis',(0.,-1.,0.));
#638=DIRECTION('ref_axis',(1.,0.,0.));
#639=DIRECTION('center_axis',(0.,-1.,0.));
#640=DIRECTION('ref_axis',(1.,0.,0.));
#641=DIRECTION('center_axis',(0.,-1.,0.));
#642=DIRECTION('ref_axis',(1.,0.,0.));
#643=DIRECTION('center_axis',(0.,-1.,0.));
#644=DIRECTION('ref_axis',(1.,0.,0.));
#645=DIRECTION('center_axis',(0.,-1.,0.));
#646=DIRECTION('ref_axis',(-0.707106781186547,0.,0.707106781186548));
#647=DIRECTION('center_axis',(1.25321623502168E-16,1.,0.));
#648=DIRECTION('ref_axis',(-0.707106781186547,0.,0.707106781186548));
#649=DIRECTION('',(0.,1.,0.));
#650=DIRECTION('',(0.,-1.,0.));
#651=DIRECTION('center_axis',(0.,0.,1.));
#652=DIRECTION('ref_axis',(1.,0.,0.));
#653=DIRECTION('',(1.,-1.25321623502168E-16,0.));
#654=DIRECTION('center_axis',(0.,0.,-1.));
#655=DIRECTION('ref_axis',(0.707106781186547,-0.707106781186547,0.));
#656=DIRECTION('',(0.,1.,0.));
#657=DIRECTION('',(1.,0.,0.));
#658=DIRECTION('',(3.41607084500048E-16,-1.,0.));
#659=DIRECTION('center_axis',(0.,0.,1.));
#660=DIRECTION('ref_axis',(0.707106781186547,-0.707106781186548,0.));
#661=DIRECTION('center_axis',(-1.,0.,0.));
#662=DIRECTION('ref_axis',(0.,0.707106781186548,0.707106781186548));
#663=DIRECTION('center_axis',(1.,3.41607084500048E-16,0.));
#664=DIRECTION('ref_axis',(0.,0.707106781186548,0.707106781186548));
#665=DIRECTION('center_axis',(-1.,0.,0.));
#666=DIRECTION('ref_axis',(0.,0.707106781186548,0.707106781186548));
#667=DIRECTION('',(-1.,0.,0.));
#668=DIRECTION('center_axis',(-1.,-3.41607084500048E-16,0.));
#669=DIRECTION('ref_axis',(3.41607084500048E-16,-1.,0.));
#670=DIRECTION('',(0.,0.,1.));
#671=DIRECTION('center_axis',(1.,3.41607084500048E-16,0.));
#672=DIRECTION('ref_axis',(0.,0.707106781186548,-0.707106781186548));
#673=DIRECTION('',(0.,0.,-1.));
#674=DIRECTION('center_axis',(1.,3.41607084500048E-16,0.));
#675=DIRECTION('ref_axis',(0.,0.,-1.));
#676=DIRECTION('center_axis',(1.,3.41607084500048E-16,0.));
#677=DIRECTION('ref_axis',(0.,0.,-1.));
#678=DIRECTION('center_axis',(1.,3.41607084500048E-16,0.));
#679=DIRECTION('ref_axis',(0.,0.,-1.));
#680=DIRECTION('center_axis',(1.,3.41607084500048E-16,0.));
#681=DIRECTION('ref_axis',(0.,0.,-1.));
#682=DIRECTION('center_axis',(1.,0.,0.));
#683=DIRECTION('ref_axis',(0.,0.707106781186548,-0.707106781186548));
#684=DIRECTION('center_axis',(-1.,0.,0.));
#685=DIRECTION('ref_axis',(0.,0.707106781186548,-0.707106781186548));
#686=DIRECTION('',(1.,0.,0.));
#687=DIRECTION('center_axis',(1.,0.,0.));
#688=DIRECTION('ref_axis',(0.,1.,0.));
#689=DIRECTION('',(0.,0.,1.));
#690=DIRECTION('',(0.,0.,1.));
#691=DIRECTION('center_axis',(-1.,0.,0.));
#692=DIRECTION('ref_axis',(0.,0.,-1.));
#693=DIRECTION('center_axis',(-1.,0.,0.));
#694=DIRECTION('ref_axis',(0.,0.,-1.));
#695=DIRECTION('center_axis',(-1.,0.,0.));
#696=DIRECTION('ref_axis',(0.,0.,-1.));
#697=DIRECTION('center_axis',(-1.,0.,0.));
#698=DIRECTION('ref_axis',(0.,0.,-1.));
#699=DIRECTION('center_axis',(1.,0.,0.));
#700=DIRECTION('ref_axis',(0.,0.,-1.));
#701=DIRECTION('',(-1.,0.,0.));
#702=DIRECTION('center_axis',(1.,0.,0.));
#703=DIRECTION('ref_axis',(0.,0.,-1.));
#704=DIRECTION('',(-1.,0.,0.));
#705=DIRECTION('center_axis',(1.,0.,0.));
#706=DIRECTION('ref_axis',(0.,0.,-1.));
#707=DIRECTION('',(-1.,0.,0.));
#708=DIRECTION('center_axis',(1.,0.,0.));
#709=DIRECTION('ref_axis',(0.,0.,-1.));
#710=DIRECTION('',(-1.,0.,0.));
#711=DIRECTION('center_axis',(0.,1.,0.));
#712=DIRECTION('ref_axis',(1.,0.,0.));
#713=DIRECTION('',(0.,-1.,0.));
#714=DIRECTION('center_axis',(1.25321623502168E-16,1.,0.));
#715=DIRECTION('ref_axis',(1.,0.,0.));
#716=DIRECTION('center_axis',(0.,1.,0.));
#717=DIRECTION('ref_axis',(1.,0.,0.));
#718=DIRECTION('',(0.,-1.,0.));
#719=DIRECTION('center_axis',(1.25321623502168E-16,1.,0.));
#720=DIRECTION('ref_axis',(1.,0.,0.));
#721=DIRECTION('center_axis',(0.,1.,0.));
#722=DIRECTION('ref_axis',(1.,0.,0.));
#723=DIRECTION('',(0.,-1.,0.));
#724=DIRECTION('center_axis',(1.25321623502168E-16,1.,0.));
#725=DIRECTION('ref_axis',(1.,0.,0.));
#726=DIRECTION('center_axis',(0.,1.,0.));
#727=DIRECTION('ref_axis',(1.,0.,0.));
#728=DIRECTION('',(0.,-1.,0.));
#729=DIRECTION('center_axis',(1.25321623502168E-16,1.,0.));
#730=DIRECTION('ref_axis',(1.,0.,0.));
#731=DIRECTION('center_axis',(0.,1.,0.));
#732=DIRECTION('ref_axis',(1.,0.,0.));
#733=DIRECTION('',(0.,-1.,0.));
#734=DIRECTION('center_axis',(1.25321623502168E-16,1.,0.));
#735=DIRECTION('ref_axis',(1.,0.,0.));
#736=DIRECTION('center_axis',(0.,1.,0.));
#737=DIRECTION('ref_axis',(1.,0.,0.));
#738=DIRECTION('',(0.,-1.,0.));
#739=DIRECTION('center_axis',(1.25321623502168E-16,1.,0.));
#740=DIRECTION('ref_axis',(1.,0.,0.));
#741=DIRECTION('center_axis',(0.,0.,1.));
#742=DIRECTION('ref_axis',(0.707106781186547,-0.707106781186547,0.));
#743=DIRECTION('',(0.,0.,-1.));
#744=DIRECTION('center_axis',(0.,0.,1.));
#745=DIRECTION('ref_axis',(0.707106781186547,-0.707106781186548,0.));
#746=DIRECTION('center_axis',(-1.,0.,0.));
#747=DIRECTION('ref_axis',(0.,-1.,0.));
#748=DIRECTION('',(0.,0.,-1.));
#749=DIRECTION('center_axis',(0.,1.,0.));
#750=DIRECTION('ref_axis',(-1.,0.,0.));
#751=DIRECTION('center_axis',(-1.25321623502168E-16,-1.,0.));
#752=DIRECTION('ref_axis',(1.,-1.25321623502168E-16,0.));
#753=CARTESIAN_POINT('',(0.,0.,0.));
#754=CARTESIAN_POINT('Origin',(-3.,3.,-4.44089209850063E-15));
#755=CARTESIAN_POINT('',(-6.20000000000001,3.,-4.83277907422778E-15));
#756=CARTESIAN_POINT('Origin',(-3.,3.,-4.44089209850063E-15));
#757=CARTESIAN_POINT('',(-6.20000000000001,2.22044604925031E-15,-4.04900512277347E-15));
#758=CARTESIAN_POINT('',(-6.20000000000001,3.,-4.83277907422778E-15));
#759=CARTESIAN_POINT('Origin',(-3.,2.22044604925031E-15,-4.44089209850063E-15));
#760=CARTESIAN_POINT('Origin',(-19.,5.5,-24.));
#761=CARTESIAN_POINT('',(-21.,3.,-24.));
#762=CARTESIAN_POINT('',(-19.,3.,-26.));
#763=CARTESIAN_POINT('Origin',(-19.,3.,-24.));
#764=CARTESIAN_POINT('',(-19.,2.23730737852382E-15,-26.));
#765=CARTESIAN_POINT('',(-19.,5.5,-26.));
#766=CARTESIAN_POINT('',(-21.,2.48795062552815E-15,-24.));
#767=CARTESIAN_POINT('Origin',(-19.,2.22044604925031E-15,-24.));
#768=CARTESIAN_POINT('',(-21.,5.5,-24.));
#769=CARTESIAN_POINT('Origin',(0.,8.,-26.));
#770=CARTESIAN_POINT('',(16.,3.,-26.));
#771=CARTESIAN_POINT('',(21.,3.,-26.));
#772=CARTESIAN_POINT('',(18.,5.,-26.));
#773=CARTESIAN_POINT('Origin',(16.,5.,-26.));
#774=CARTESIAN_POINT('',(18.,14.,-26.));
#775=CARTESIAN_POINT('',(18.,16.,-26.));
#776=CARTESIAN_POINT('',(21.,14.,-26.));
#777=CARTESIAN_POINT('',(10.5,14.,-26.));
#778=CARTESIAN_POINT('',(21.,5.,-26.));
#779=CARTESIAN_POINT('',(21.,-2.77555756156289E-15,-26.));
#780=CARTESIAN_POINT('',(16.,-2.14894944405205E-15,-26.));
#781=CARTESIAN_POINT('Origin',(16.,5.,-26.));
#782=CARTESIAN_POINT('',(-21.,2.48795062552815E-15,-26.));
#783=CARTESIAN_POINT('Origin',(18.,3.,0.));
#784=CARTESIAN_POINT('',(-21.,3.,24.));
#785=CARTESIAN_POINT('',(-21.,3.,0.));
#786=CARTESIAN_POINT('',(-19.,3.,26.));
#787=CARTESIAN_POINT('Origin',(-19.,3.,24.));
#788=CARTESIAN_POINT('',(16.,3.,26.));
#789=CARTESIAN_POINT('',(21.,3.,26.));
#790=CARTESIAN_POINT('',(16.,3.,0.));
#791=CARTESIAN_POINT('',(-4.50000000000001,3.,-18.));
#792=CARTESIAN_POINT('Origin',(-3.00000000000001,3.,-18.));
#793=CARTESIAN_POINT('',(-4.5,3.,18.));
#794=CARTESIAN_POINT('Origin',(-3.,3.,18.));
#795=CARTESIAN_POINT('',(-17.5,3.,18.));
#796=CARTESIAN_POINT('Origin',(-16.,3.,18.));
#797=CARTESIAN_POINT('',(-17.5,3.,-18.));
#798=CARTESIAN_POINT('Origin',(-16.,3.,-18.));
#799=CARTESIAN_POINT('',(8.49999999999999,3.,-18.));
#800=CARTESIAN_POINT('Origin',(9.99999999999999,3.,-18.));
#801=CARTESIAN_POINT('',(8.5,3.,18.));
#802=CARTESIAN_POINT('Origin',(10.,3.,18.));
#803=CARTESIAN_POINT('Origin',(-19.,5.5,24.));
#804=CARTESIAN_POINT('',(-21.,2.48795062552815E-15,24.));
#805=CARTESIAN_POINT('',(-19.,2.23730737852382E-15,26.));
#806=CARTESIAN_POINT('Origin',(-19.,2.22044604925031E-15,24.));
#807=CARTESIAN_POINT('',(-19.,5.5,26.));
#808=CARTESIAN_POINT('',(-21.,5.5,24.));
#809=CARTESIAN_POINT('Origin',(0.,8.,26.));
#810=CARTESIAN_POINT('',(16.,-2.14894944405205E-15,26.));
#811=CARTESIAN_POINT('',(-21.,2.48795062552815E-15,26.));
#812=CARTESIAN_POINT('',(21.,5.,26.));
#813=CARTESIAN_POINT('Origin',(16.,5.,26.));
#814=CARTESIAN_POINT('',(21.,14.,26.));
#815=CARTESIAN_POINT('',(21.,-2.77555756156289E-15,26.));
#816=CARTESIAN_POINT('',(18.,14.,26.));
#817=CARTESIAN_POINT('',(10.5,14.,26.));
#818=CARTESIAN_POINT('',(18.,5.,26.));
#819=CARTESIAN_POINT('',(18.,16.,26.));
#820=CARTESIAN_POINT('Origin',(16.,5.,26.));
#821=CARTESIAN_POINT('Origin',(10.5,14.,24.));
#822=CARTESIAN_POINT('',(18.,16.,24.));
#823=CARTESIAN_POINT('Origin',(18.,14.,24.));
#824=CARTESIAN_POINT('',(21.,16.,24.));
#825=CARTESIAN_POINT('Origin',(21.,14.,24.));
#826=CARTESIAN_POINT('',(10.5,16.,24.));
#827=CARTESIAN_POINT('Origin',(18.,16.,0.));
#828=CARTESIAN_POINT('',(18.,16.,-24.));
#829=CARTESIAN_POINT('',(18.,16.,0.));
#830=CARTESIAN_POINT('Origin',(18.,14.,-24.));
#831=CARTESIAN_POINT('',(18.,5.,0.));
#832=CARTESIAN_POINT('',(18.,12.,24.));
#833=CARTESIAN_POINT('Origin',(18.,12.,22.5));
#834=CARTESIAN_POINT('',(18.,12.,-21.));
#835=CARTESIAN_POINT('Origin',(18.,12.,-22.5));
#836=CARTESIAN_POINT('',(18.,12.,11.5));
#837=CARTESIAN_POINT('Origin',(18.,12.,10.));
#838=CARTESIAN_POINT('',(18.,12.,-8.5));
#839=CARTESIAN_POINT('Origin',(18.,12.,-10.));
#840=CARTESIAN_POINT('Origin',(10.5,14.,-24.));
#841=CARTESIAN_POINT('',(21.,16.,-24.));
#842=CARTESIAN_POINT('Origin',(21.,14.,-24.));
#843=CARTESIAN_POINT('',(10.5,16.,-24.));
#844=CARTESIAN_POINT('Origin',(21.,-2.77555756156289E-15,0.));
#845=CARTESIAN_POINT('',(21.,5.,0.));
#846=CARTESIAN_POINT('',(21.,16.,0.));
#847=CARTESIAN_POINT('',(21.,12.,24.));
#848=CARTESIAN_POINT('Origin',(21.,12.,22.5));
#849=CARTESIAN_POINT('',(21.,12.,-21.));
#850=CARTESIAN_POINT('Origin',(21.,12.,-22.5));
#851=CARTESIAN_POINT('',(21.,12.,11.5));
#852=CARTESIAN_POINT('Origin',(21.,12.,10.));
#853=CARTESIAN_POINT('',(21.,12.,-8.5));
#854=CARTESIAN_POINT('Origin',(21.,12.,-10.));
#855=CARTESIAN_POINT('Origin',(-47.7313611097583,12.,-10.));
#856=CARTESIAN_POINT('',(-47.7313611097583,12.,-8.5));
#857=CARTESIAN_POINT('Origin',(-47.7313611097583,12.,10.));
#858=CARTESIAN_POINT('',(-47.7313611097583,12.,11.5));
#859=CARTESIAN_POINT('Origin',(-47.7313611097583,12.,-22.5));
#860=CARTESIAN_POINT('',(-47.7313611097583,12.,-21.));
#861=CARTESIAN_POINT('Origin',(-47.7313611097583,12.,22.5));
#862=CARTESIAN_POINT('',(-47.7313611097583,12.,24.));
#863=CARTESIAN_POINT('Origin',(-3.00000000000001,-65.7313611097583,-18.));
#864=CARTESIAN_POINT('',(-4.50000000000001,0.,-18.));
#865=CARTESIAN_POINT('',(-4.50000000000001,-65.7313611097583,-18.));
#866=CARTESIAN_POINT('Origin',(-3.00000000000001,0.,-18.));
#867=CARTESIAN_POINT('Origin',(-3.,-65.7313611097583,18.));
#868=CARTESIAN_POINT('',(-4.5,0.,18.));
#869=CARTESIAN_POINT('',(-4.5,-65.7313611097583,18.));
#870=CARTESIAN_POINT('Origin',(-3.,0.,18.));
#871=CARTESIAN_POINT('Origin',(-16.,-65.7313611097583,18.));
#872=CARTESIAN_POINT('',(-17.5,0.,18.));
#873=CARTESIAN_POINT('',(-17.5,-65.7313611097583,18.));
#874=CARTESIAN_POINT('Origin',(-16.,0.,18.));
#875=CARTESIAN_POINT('Origin',(-16.,-65.7313611097583,-18.));
#876=CARTESIAN_POINT('',(-17.5,0.,-18.));
#877=CARTESIAN_POINT('',(-17.5,-65.7313611097583,-18.));
#878=CARTESIAN_POINT('Origin',(-16.,0.,-18.));
#879=CARTESIAN_POINT('Origin',(9.99999999999999,-65.7313611097583,-18.));
#880=CARTESIAN_POINT('',(8.49999999999999,0.,-18.));
#881=CARTESIAN_POINT('',(8.49999999999999,-65.7313611097583,-18.));
#882=CARTESIAN_POINT('Origin',(9.99999999999999,0.,-18.));
#883=CARTESIAN_POINT('Origin',(10.,-65.7313611097583,18.));
#884=CARTESIAN_POINT('',(8.5,0.,18.));
#885=CARTESIAN_POINT('',(8.5,-65.7313611097583,18.));
#886=CARTESIAN_POINT('Origin',(10.,0.,18.));
#887=CARTESIAN_POINT('Origin',(16.,5.,0.));
#888=CARTESIAN_POINT('',(16.,-2.22044604925031E-15,0.));
#889=CARTESIAN_POINT('Origin',(16.,5.,0.));
#890=CARTESIAN_POINT('Origin',(-21.,3.,0.));
#891=CARTESIAN_POINT('',(-21.,2.48795062552815E-15,0.));
#892=CARTESIAN_POINT('Origin',(21.,16.,0.));
#893=CARTESIAN_POINT('Origin',(-21.,2.48795062552815E-15,0.));
#894=UNCERTAINTY_MEASURE_WITH_UNIT(LENGTH_MEASURE(0.01),#898,
'DISTANCE_ACCURACY_VALUE',
'Maximum model space distance between geometric entities at asserted c
onnectivities');
#895=UNCERTAINTY_MEASURE_WITH_UNIT(LENGTH_MEASURE(0.01),#898,
'DISTANCE_ACCURACY_VALUE',
'Maximum model space distance between geometric entities at asserted c
onnectivities');
#896=(
GEOMETRIC_REPRESENTATION_CONTEXT(3)
GLOBAL_UNCERTAINTY_ASSIGNED_CONTEXT((#894))
GLOBAL_UNIT_ASSIGNED_CONTEXT((#898,#900,#901))
REPRESENTATION_CONTEXT('','3D')
);
#897=(
GEOMETRIC_REPRESENTATION_CONTEXT(3)
GLOBAL_UNCERTAINTY_ASSIGNED_CONTEXT((#895))
GLOBAL_UNIT_ASSIGNED_CONTEXT((#898,#900,#901))
REPRESENTATION_CONTEXT('','3D')
);
#898=(
LENGTH_UNIT()
NAMED_UNIT(*)
SI_UNIT(.MILLI.,.METRE.)
);
#899=(
LENGTH_UNIT()
NAMED_UNIT(*)
SI_UNIT(.CENTI.,.METRE.)
);
#900=(
NAMED_UNIT(*)
PLANE_ANGLE_UNIT()
SI_UNIT($,.RADIAN.)
);
#901=(
NAMED_UNIT(*)
SI_UNIT($,.STERADIAN.)
SOLID_ANGLE_UNIT()
);
#902=SHAPE_DEFINITION_REPRESENTATION(#903,#904);
#903=PRODUCT_DEFINITION_SHAPE('',$,#906);
#904=SHAPE_REPRESENTATION('',(#538),#896);
#905=PRODUCT_DEFINITION_CONTEXT('part definition',#910,'design');
#906=PRODUCT_DEFINITION('D435_\X2\C808ACE1D488B3C4BA74\X0\_260304',
'\X2\BA40D2F0BE0CB77CCF13\X0\_\X2\C808ACE1D488\X0\',#907,#905);
#907=PRODUCT_DEFINITION_FORMATION('',$,#912);
#908=PRODUCT_RELATED_PRODUCT_CATEGORY('\X2\BA40D2F0BE0CB77CCF13\X0\_\X2\C808ACE1D488\X0\',
'\X2\BA40D2F0BE0CB77CCF13\X0\_\X2\C808ACE1D488\X0\',(#912));
#909=APPLICATION_PROTOCOL_DEFINITION('international standard',
'automotive_design',2009,#910);
#910=APPLICATION_CONTEXT(
'Core Data for Automotive Mechanical Design Process');
#911=PRODUCT_CONTEXT('part definition',#910,'mechanical');
#912=PRODUCT('D435_\X2\C808ACE1D488B3C4BA74\X0\_260304',
'\X2\BA40D2F0BE0CB77CCF13\X0\_\X2\C808ACE1D488\X0\',$,(#911));
#913=PRESENTATION_STYLE_ASSIGNMENT((#914));
#914=SURFACE_STYLE_USAGE(.BOTH.,#917);
#915=SURFACE_STYLE_RENDERING_WITH_PROPERTIES($,#921,(#916));
#916=SURFACE_STYLE_TRANSPARENT(0.);
#917=SURFACE_SIDE_STYLE('',(#918,#915));
#918=SURFACE_STYLE_FILL_AREA(#919);
#919=FILL_AREA_STYLE('',(#920));
#920=FILL_AREA_STYLE_COLOUR('',#921);
#921=COLOUR_RGB('',0.749019607843137,0.749019607843137,0.749019607843137);
ENDSEC;
END-ISO-10303-21;
